<svg xmlns="http://www.w3.org/2000/svg" width="84.594" height="84.594" viewBox="0 0 84.594 84.594">
  <g id="tools-and-utensils" transform="translate(-0.001 0)">
    <g id="Group_153" data-name="Group 153" transform="translate(0.001 0)">
      <g id="Group_152" data-name="Group 152" transform="translate(0)">
        <path id="Path_1516" data-name="Path 1516" d="M25.372,14.857,27.124,13.1a2.48,2.48,0,0,0-.477-3.877L13.372,1.262A8.828,8.828,0,0,0,1.261,13.373L9.226,26.646a2.48,2.48,0,0,0,3.877.477l1.755-1.752L28.267,38.758l10.5-10.5Z" transform="translate(-0.001 -0.002)" fill="#070337"/>
      </g>
    </g>
    <g id="Group_155" data-name="Group 155" transform="translate(0.001 0)">
      <g id="Group_154" data-name="Group 154" transform="translate(0)">
        <path id="Path_1517" data-name="Path 1517" d="M82.905,9.869a2.478,2.478,0,0,0-3.989-.685L72.505,15.6a2.532,2.532,0,0,1-3.5,0,2.482,2.482,0,0,1,0-3.5L75.412,5.68a2.48,2.48,0,0,0-.685-3.989A17.355,17.355,0,0,0,50.9,23.176L23.175,50.9A17.355,17.355,0,0,0,1.69,74.727a2.48,2.48,0,0,0,3.989.685L12.09,69a2.478,2.478,0,0,1,3.5,3.5L9.183,78.916a2.48,2.48,0,0,0,.685,3.989A17.355,17.355,0,0,0,33.69,61.42L61.418,33.694A17.356,17.356,0,0,0,82.905,9.869Z" transform="translate(-0.001 0)" fill="#070337"/>
      </g>
    </g>
    <g id="Group_157" data-name="Group 157" transform="translate(44.033 44.256)">
      <g id="Group_156" data-name="Group 156">
        <path id="Path_1518" data-name="Path 1518" d="M303.4,287.236c-8.413-8.382-13.025-11.712-22.887-19.382L266.5,281.871c6.932,8.9,11.13,14.639,19,22.514a13.16,13.16,0,0,0,9.364,3.776,11.748,11.748,0,0,0,6.961-2.06,12.4,12.4,0,0,0,1.576-18.866Zm-7.138,10.169a2.524,2.524,0,0,1-3.468-.131l-9.815-9.815a2.524,2.524,0,0,1-.131-3.468,2.478,2.478,0,0,1,3.586-.086l9.913,9.913A2.478,2.478,0,0,1,296.266,297.405Z" transform="translate(-266.501 -267.854)" fill="#070337"/>
      </g>
    </g>
  </g>
</svg>
