<svg xmlns="http://www.w3.org/2000/svg" width="85.69" height="86.5" viewBox="0 0 85.69 86.5">
  <g id="Solid" transform="translate(-40 -24.5)">
    <path id="Path_1519" data-name="Path 1519" d="M185.48,440H164.5a4.5,4.5,0,0,0-4.5,4.5v4.5h29.976v-4.5A4.5,4.5,0,0,0,185.48,440Z" transform="translate(-97.518 -337.993)" fill="#070337"/>
    <path id="Path_1520" data-name="Path 1520" d="M351.963,440H327.978a7.455,7.455,0,0,1,1.5,4.5v4.5h26.978v-4.5A4.5,4.5,0,0,0,351.963,440Z" transform="translate(-234.025 -337.993)" fill="#070337"/>
    <path id="Path_1521" data-name="Path 1521" d="M375.494,358.988h.245a4.257,4.257,0,0,0,4.252-4.252v-6.483A4.257,4.257,0,0,0,375.739,344h-3.487A4.257,4.257,0,0,0,368,348.253v6.484a4.257,4.257,0,0,0,4.252,4.251Z" transform="translate(-266.549 -259.978)" fill="#070337"/>
    <path id="Path_1522" data-name="Path 1522" d="M92.252,46.988h3.487a4.257,4.257,0,0,0,4.252-4.252V36.253A4.257,4.257,0,0,0,95.739,32H92.252A4.257,4.257,0,0,0,88,36.253v6.484A4.257,4.257,0,0,0,92.252,46.988Z" transform="translate(-39.007 -6.432)" fill="#070337"/>
    <path id="Path_1523" data-name="Path 1523" d="M64.73,119.494H90.959a1.5,1.5,0,0,0,1.5-1.5v-4.5a1.5,1.5,0,0,0-1.5-1.5H85.585l-2.558,2.559a1.5,1.5,0,0,1-1.06.439H44.5a4.5,4.5,0,0,0-4.5,4.5v25.48a1.5,1.5,0,0,0,1.5,1.5H46a1.5,1.5,0,0,0,1.5-1.5V142.6l-2.559-2.559a1.5,1.5,0,0,1-.439-1.06V123.99h3v14.367l2.559,2.559a1.5,1.5,0,0,1,.439,1.06v3a4.5,4.5,0,0,1-2.742,4.14l1.191,33.33h4.549V147.971h3v34.472h3v-4.5a7.462,7.462,0,0,1,1.889-4.967l1.859-52.041A1.5,1.5,0,0,1,64.73,119.494Z" transform="translate(0 -71.444)" fill="#070337"/>
    <path id="Path_1524" data-name="Path 1524" d="M212.252,344h3.487a4.252,4.252,0,0,1,4.252,4.252v6.484a4.252,4.252,0,0,1-4.252,4.252h-3.487A4.252,4.252,0,0,1,208,354.736v-6.484A4.252,4.252,0,0,1,212.252,344Z" transform="translate(-136.525 -259.978)" fill="#070337"/>
    <path id="Path_1525" data-name="Path 1525" d="M376.144,103.638a7.494,7.494,0,0,0,1.5-14.838v7.344a1.5,1.5,0,0,1-1.5,1.5H368.8a7.507,7.507,0,0,0,7.344,6Z" transform="translate(-267.199 -52.59)" fill="#070337"/>
    <path id="Path_1526" data-name="Path 1526" d="M224,66.492h6.873l2.558-2.559a1.5,1.5,0,0,1,1.06-.439h6a4.5,4.5,0,0,1,4.5,4.5v4.5a4.5,4.5,0,0,1-4.5,4.5H224V96.468h47.962V56H224Zm7.494,16.487h3v3h-3Zm29.976,8.993H228.5v-3H261.47Zm6-6H237.489v-3h29.976ZM249.48,67.99h7.494V60.5a1.5,1.5,0,0,1,1.5-1.5,10.492,10.492,0,1,1-10.492,10.492A1.5,1.5,0,0,1,249.48,67.99Z" transform="translate(-149.528 -25.935)" fill="#070337"/>
    <rect id="Rectangle_131" data-name="Rectangle 131" width="54" height="3" transform="translate(71.69 24.5)" fill="#070337"/>
  </g>
</svg>
