<svg id="business" xmlns="http://www.w3.org/2000/svg" width="84.017" height="84.017" viewBox="0 0 84.017 84.017">
  <g id="Group_159" data-name="Group 159" transform="translate(72.814 16.803)">
    <g id="Group_158" data-name="Group 158">
      <path id="Path_1527" data-name="Path 1527" d="M449.335,102.4a5.6,5.6,0,1,0,5.6,5.6A5.607,5.607,0,0,0,449.335,102.4Zm0,8.4a2.8,2.8,0,1,1,2.8-2.8A2.8,2.8,0,0,1,449.335,110.8Z" transform="translate(-443.734 -102.4)" fill="#070337"/>
    </g>
  </g>
  <g id="Group_161" data-name="Group 161" transform="translate(0 63.012)">
    <g id="Group_160" data-name="Group 160">
      <path id="Path_1528" data-name="Path 1528" d="M5.6,384a5.6,5.6,0,1,0,5.6,5.6A5.607,5.607,0,0,0,5.6,384Zm0,8.4a2.8,2.8,0,1,1,2.8-2.8A2.8,2.8,0,0,1,5.6,392.4Z" transform="translate(0 -384)" fill="#070337"/>
    </g>
  </g>
  <g id="Group_163" data-name="Group 163" transform="translate(61.612 12.601)">
    <g id="Group_162" data-name="Group 162">
      <path id="Path_1529" data-name="Path 1529" d="M389.552,82.764l-12.08-5.832a1.4,1.4,0,0,0-1.217,2.522l12.08,5.832a1.4,1.4,0,0,0,1.217-2.522Z" transform="translate(-375.463 -76.792)" fill="#070337"/>
    </g>
  </g>
  <g id="Group_165" data-name="Group 165" transform="translate(57.411 72.814)">
    <g id="Group_164" data-name="Group 164">
      <path id="Path_1530" data-name="Path 1530" d="M355.468,443.733a5.6,5.6,0,1,0,5.6,5.6A5.607,5.607,0,0,0,355.468,443.733Zm0,8.4a2.8,2.8,0,1,1,2.8-2.8A2.8,2.8,0,0,1,355.468,452.135Z" transform="translate(-349.867 -443.733)" fill="#070337"/>
    </g>
  </g>
  <g id="Group_167" data-name="Group 167" transform="translate(46.208 68.612)">
    <g id="Group_166" data-name="Group 166">
      <path id="Path_1531" data-name="Path 1531" d="M295.685,424.1l-12.08-5.832a1.4,1.4,0,0,0-1.217,2.522l12.08,5.832a1.4,1.4,0,1,0,1.217-2.522Z" transform="translate(-281.596 -418.124)" fill="#070337"/>
    </g>
  </g>
  <g id="Group_169" data-name="Group 169" transform="translate(36.407 37.807)">
    <g id="Group_168" data-name="Group 168">
      <path id="Path_1532" data-name="Path 1532" d="M227.468,230.4a5.6,5.6,0,1,0,5.6,5.6A5.607,5.607,0,0,0,227.468,230.4Zm0,8.4a2.8,2.8,0,1,1,2.8-2.8A2.8,2.8,0,0,1,227.468,238.8Z" transform="translate(-221.867 -230.4)" fill="#070337"/>
    </g>
  </g>
  <g id="Group_171" data-name="Group 171" transform="translate(28.005 32.207)">
    <g id="Group_170" data-name="Group 170">
      <path id="Path_1533" data-name="Path 1533" d="M182.206,203.8l-9.28-7.233a1.4,1.4,0,0,0-1.722,2.21l9.28,7.232a1.4,1.4,0,1,0,1.722-2.21Z" transform="translate(-170.664 -196.272)" fill="#070337"/>
    </g>
  </g>
  <g id="Group_173" data-name="Group 173" transform="translate(51.81 36.407)">
    <g id="Group_172" data-name="Group 172">
      <path id="Path_1534" data-name="Path 1534" d="M331.136,221.867a15.4,15.4,0,1,0,15.4,15.4A15.421,15.421,0,0,0,331.136,221.867Zm0,28.005a12.6,12.6,0,1,1,12.6-12.6A12.616,12.616,0,0,1,331.136,249.872Z" transform="translate(-315.733 -221.867)" fill="#070337"/>
    </g>
  </g>
  <g id="Group_175" data-name="Group 175" transform="translate(61.612 42.008)">
    <g id="Group_174" data-name="Group 174">
      <path id="Path_1535" data-name="Path 1535" d="M381.068,256a5.6,5.6,0,1,0,5.6,5.6A5.607,5.607,0,0,0,381.068,256Zm0,8.4a2.8,2.8,0,1,1,2.8-2.8A2.8,2.8,0,0,1,381.068,264.4Z" transform="translate(-375.467 -256)" fill="#070337"/>
    </g>
  </g>
  <g id="Group_177" data-name="Group 177" transform="translate(58.812 56.011)">
    <g id="Group_176" data-name="Group 176">
      <path id="Path_1536" data-name="Path 1536" d="M370.864,341.333h-8.124a4.287,4.287,0,0,0-4.339,4.222v3.691a1.4,1.4,0,0,0,.7,1.213,15.325,15.325,0,0,0,15.406,0,1.4,1.4,0,0,0,.7-1.211v-3.691A4.287,4.287,0,0,0,370.864,341.333Zm1.539,7.078a12.7,12.7,0,0,1-11.2,0v-2.855a1.486,1.486,0,0,1,1.539-1.423h8.124a1.486,1.486,0,0,1,1.539,1.423v2.855Z" transform="translate(-358.4 -341.333)" fill="#070337"/>
    </g>
  </g>
  <g id="Group_179" data-name="Group 179" transform="translate(18.204 53.211)">
    <g id="Group_178" data-name="Group 178">
      <path id="Path_1537" data-name="Path 1537" d="M126.336,324.267a15.4,15.4,0,1,0,15.4,15.4A15.421,15.421,0,0,0,126.336,324.267Zm0,28.005a12.6,12.6,0,1,1,12.6-12.6A12.616,12.616,0,0,1,126.336,352.272Z" transform="translate(-110.933 -324.267)" fill="#070337"/>
    </g>
  </g>
  <g id="Group_181" data-name="Group 181" transform="translate(28.006 58.812)">
    <g id="Group_180" data-name="Group 180">
      <path id="Path_1538" data-name="Path 1538" d="M176.268,358.4a5.6,5.6,0,1,0,5.6,5.6A5.607,5.607,0,0,0,176.268,358.4Zm0,8.4a2.8,2.8,0,1,1,2.8-2.8A2.8,2.8,0,0,1,176.268,366.8Z" transform="translate(-170.667 -358.4)" fill="#070337"/>
    </g>
  </g>
  <g id="Group_183" data-name="Group 183" transform="translate(25.205 72.814)">
    <g id="Group_182" data-name="Group 182">
      <path id="Path_1539" data-name="Path 1539" d="M166.064,443.733h-8.124a4.287,4.287,0,0,0-4.339,4.222v3.691a1.4,1.4,0,0,0,.7,1.213,15.325,15.325,0,0,0,15.406,0,1.4,1.4,0,0,0,.7-1.211v-3.691A4.287,4.287,0,0,0,166.064,443.733Zm1.539,7.078a12.7,12.7,0,0,1-11.2,0v-2.855a1.486,1.486,0,0,1,1.539-1.423h8.124a1.486,1.486,0,0,1,1.539,1.423v2.855Z" transform="translate(-153.6 -443.733)" fill="#070337"/>
    </g>
  </g>
  <g id="Group_185" data-name="Group 185" transform="translate(0 18.204)">
    <g id="Group_184" data-name="Group 184">
      <path id="Path_1540" data-name="Path 1540" d="M15.4,110.933a15.4,15.4,0,1,0,15.4,15.4A15.421,15.421,0,0,0,15.4,110.933Zm0,28.006a12.6,12.6,0,1,1,12.6-12.6A12.616,12.616,0,0,1,15.4,138.939Z" transform="translate(0 -110.933)" fill="#070337"/>
    </g>
  </g>
  <g id="Group_187" data-name="Group 187" transform="translate(9.802 23.805)">
    <g id="Group_186" data-name="Group 186">
      <path id="Path_1541" data-name="Path 1541" d="M65.335,145.067a5.6,5.6,0,1,0,5.6,5.6A5.607,5.607,0,0,0,65.335,145.067Zm0,8.4a2.8,2.8,0,1,1,2.8-2.8A2.8,2.8,0,0,1,65.335,153.469Z" transform="translate(-59.734 -145.067)" fill="#070337"/>
    </g>
  </g>
  <g id="Group_189" data-name="Group 189" transform="translate(7.001 37.807)">
    <g id="Group_188" data-name="Group 188">
      <path id="Path_1542" data-name="Path 1542" d="M55.131,230.4H47.006a4.287,4.287,0,0,0-4.339,4.222v3.691a1.4,1.4,0,0,0,.7,1.213,15.325,15.325,0,0,0,15.406,0,1.4,1.4,0,0,0,.7-1.211v-3.691A4.287,4.287,0,0,0,55.131,230.4Zm1.539,7.078a12.7,12.7,0,0,1-11.2,0v-2.855a1.486,1.486,0,0,1,1.539-1.423h8.124a1.486,1.486,0,0,1,1.539,1.423v2.855Z" transform="translate(-42.667 -230.4)" fill="#070337"/>
    </g>
  </g>
  <g id="Group_191" data-name="Group 191" transform="translate(33.607)">
    <g id="Group_190" data-name="Group 190">
      <path id="Path_1543" data-name="Path 1543" d="M220.2,0a15.4,15.4,0,1,0,15.4,15.4A15.421,15.421,0,0,0,220.2,0Zm0,28.006a12.6,12.6,0,1,1,12.6-12.6A12.616,12.616,0,0,1,220.2,28.006Z" transform="translate(-204.8)" fill="#070337"/>
    </g>
  </g>
  <g id="Group_193" data-name="Group 193" transform="translate(43.409 5.601)">
    <g id="Group_192" data-name="Group 192">
      <path id="Path_1544" data-name="Path 1544" d="M270.135,34.133a5.6,5.6,0,1,0,5.6,5.6A5.607,5.607,0,0,0,270.135,34.133Zm0,8.4a2.8,2.8,0,1,1,2.8-2.8A2.8,2.8,0,0,1,270.135,42.535Z" transform="translate(-264.534 -34.133)" fill="#070337"/>
    </g>
  </g>
  <g id="Group_195" data-name="Group 195" transform="translate(40.608 19.604)">
    <g id="Group_194" data-name="Group 194">
      <path id="Path_1545" data-name="Path 1545" d="M259.931,119.467h-8.124a4.287,4.287,0,0,0-4.34,4.222v3.691a1.4,1.4,0,0,0,.7,1.213,15.325,15.325,0,0,0,15.406,0,1.4,1.4,0,0,0,.7-1.211V123.69A4.287,4.287,0,0,0,259.931,119.467Zm1.539,7.078a12.7,12.7,0,0,1-11.2,0V123.69a1.486,1.486,0,0,1,1.539-1.423h8.124a1.486,1.486,0,0,1,1.539,1.423v2.855Z" transform="translate(-247.467 -119.467)" fill="#070337"/>
    </g>
  </g>
  <g id="Group_197" data-name="Group 197" transform="translate(23.904 14.003)">
    <g id="Group_196" data-name="Group 196">
      <path id="Path_1546" data-name="Path 1546" d="M157.84,85.822a1.4,1.4,0,0,0-1.974-.153l-9.7,8.3a1.4,1.4,0,1,0,1.82,2.127l9.7-8.3A1.4,1.4,0,0,0,157.84,85.822Z" transform="translate(-145.671 -85.333)" fill="#070337"/>
    </g>
  </g>
  <g id="Group_199" data-name="Group 199" transform="translate(56.011 25.207)">
    <g id="Group_198" data-name="Group 198">
      <path id="Path_1547" data-name="Path 1547" d="M352.255,165.372l-8.4-11.2a1.4,1.4,0,0,0-2.241,1.679l8.4,11.2a1.4,1.4,0,0,0,2.241-1.679Z" transform="translate(-341.333 -153.61)" fill="#070337"/>
    </g>
  </g>
  <g id="Group_201" data-name="Group 201" transform="translate(45.099 55.881)">
    <g id="Group_200" data-name="Group 200">
      <path id="Path_1548" data-name="Path 1548" d="M285.175,341.1a1.4,1.4,0,0,0-1.96-.28l-7.822,5.866a1.4,1.4,0,0,0,1.68,2.239l7.822-5.866A1.4,1.4,0,0,0,285.175,341.1Z" transform="translate(-274.833 -340.54)" fill="#070337"/>
    </g>
  </g>
  <g id="Group_203" data-name="Group 203" transform="translate(8.402 67.213)">
    <g id="Group_202" data-name="Group 202">
      <path id="Path_1549" data-name="Path 1549" d="M62.4,409.6H52.6a1.4,1.4,0,1,0,0,2.8h9.8a1.4,1.4,0,0,0,0-2.8Z" transform="translate(-51.2 -409.6)" fill="#070337"/>
    </g>
  </g>
  <g id="Group_205" data-name="Group 205" transform="translate(9.802)">
    <g id="Group_204" data-name="Group 204">
      <path id="Path_1550" data-name="Path 1550" d="M65.334,0a5.6,5.6,0,1,0,5.6,5.6A5.607,5.607,0,0,0,65.334,0Zm0,8.4a2.8,2.8,0,1,1,2.8-2.8A2.8,2.8,0,0,1,65.334,8.4Z" transform="translate(-59.733)" fill="#070337"/>
    </g>
  </g>
  <g id="Group_207" data-name="Group 207" transform="translate(14.003 8.402)">
    <g id="Group_206" data-name="Group 206">
      <path id="Path_1551" data-name="Path 1551" d="M86.734,51.2a1.4,1.4,0,0,0-1.4,1.4v9.8a1.4,1.4,0,1,0,2.8,0V52.6A1.4,1.4,0,0,0,86.734,51.2Z" transform="translate(-85.334 -51.2)" fill="#070337"/>
    </g>
  </g>
</svg>
