<svg xmlns="http://www.w3.org/2000/svg" width="86" height="86" viewBox="0 0 86 86">
  <g id="thinking" transform="translate(-0.001 -0.001)">
    <path id="Path_1552" data-name="Path 1552" d="M73.417,289.551a2.522,2.522,0,0,0,.47,2.913l.616.616c1.78-2.109,3.855-4.4,6.371-6.914.178-.178.361-.264.539-.428l-3.964-3.964c-2.3,4.168-3.648,7.015-4.033,7.778Zm0,0" transform="translate(-60.862 -234.443)" fill="#070337"/>
    <path id="Path_1553" data-name="Path 1553" d="M169.793,390.1c-2.522,2.522-4.805,4.6-6.9,6.382l.835.835a2.518,2.518,0,0,0,2.934.459c1.305-.673,3.357-1.638,7.714-4.065l-4.151-4.151C170.058,389.741,169.972,389.924,169.793,390.1Zm0,0" transform="translate(-135.529 -324.127)" fill="#070337"/>
    <path id="Path_1554" data-name="Path 1554" d="M82.5,312.081c-1.821-1.821-6.941-.188-9.347,2.216-8.047,8.047-11.681,13.752-13.313,17.12a2.52,2.52,0,0,0,3.369,3.365c3.293-1.6,8.929-5.216,17.071-13.358,2.645-2.646,3.95-7.612,2.222-9.341Zm0,0" transform="translate(-49.578 -259.012)" fill="#070337"/>
    <path id="Path_1555" data-name="Path 1555" d="M7.865,169.818.739,176.945a2.52,2.52,0,0,0,2.434,4.216c3.851-1.033,7.24-1.469,9.522-.884a135.2,135.2,0,0,1,10.43-15.912c-2.137-1.37-9.2-.607-15.26,5.454Zm0,0" transform="translate(0 -136.272)" fill="#070337"/>
    <path id="Path_1556" data-name="Path 1556" d="M247.027,398.983a2.515,2.515,0,0,0,2.914-.468l7.127-7.126c5.517-5.519,6.488-12.639,5.237-14.9a143.813,143.813,0,0,1-15.924,10.35c.351,1.982.117,3.905-.713,9.522a2.514,2.514,0,0,0,1.359,2.619Zm0,0" transform="translate(-204.38 -313.252)" fill="#070337"/>
    <path id="Path_1557" data-name="Path 1557" d="M286.854,139.519a7.558,7.558,0,1,0,10.69,0A7.567,7.567,0,0,0,286.854,139.519Zm0,0" transform="translate(-236.832 -114.244)" fill="#070337"/>
    <path id="Path_1558" data-name="Path 1558" d="M408.491,2.459A2.516,2.516,0,0,0,406.167.135a49.809,49.809,0,0,0-18.393,2.143,21.153,21.153,0,0,0,6.267,12.308,21.086,21.086,0,0,0,12.548,6.256,52.105,52.105,0,0,0,1.9-18.383Zm0,0" transform="translate(-322.639 0)" fill="#070337"/>
    <path id="Path_1559" data-name="Path 1559" d="M162.972,38.113A26.47,26.47,0,0,1,155.4,24c-15.13,6.205-29.613,19.755-41.058,38.791l5.686,5.686c3.885-1.577,8.6-1.994,11.592,1s2.571,7.71.994,11.59l5.873,5.873c14.646-8.827,31.7-22.734,38.949-41.236a26.343,26.343,0,0,1-14.462-7.584Zm-3.564,21.379a12.6,12.6,0,1,1,0-17.816A12.613,12.613,0,0,1,159.407,59.492Zm0,0" transform="translate(-95.133 -19.964)" fill="#070337"/>
  </g>
</svg>
