<svg id="coins" xmlns="http://www.w3.org/2000/svg" width="79.258" height="79.258" viewBox="0 0 79.258 79.258">
  <g id="Group_209" data-name="Group 209" transform="translate(24.768 69.351)">
    <g id="Group_208" data-name="Group 208">
      <path id="Path_1560" data-name="Path 1560" d="M188.07,448H161.651A1.651,1.651,0,0,0,160,449.651v6.6a1.651,1.651,0,0,0,1.651,1.651h26.419a1.651,1.651,0,0,0,1.651-1.651v-6.6A1.652,1.652,0,0,0,188.07,448Zm-1.651,6.6H163.3v-3.3h23.117v3.3Z" transform="translate(-160 -448)" fill="#070337"/>
    </g>
  </g>
  <g id="Group_211" data-name="Group 211" transform="translate(24.768 62.746)">
    <g id="Group_210" data-name="Group 210">
      <path id="Path_1561" data-name="Path 1561" d="M188.07,405.333H161.651A1.651,1.651,0,0,0,160,406.984v6.6a1.651,1.651,0,0,0,1.651,1.651h26.419a1.651,1.651,0,0,0,1.651-1.651v-6.6A1.652,1.652,0,0,0,188.07,405.333Zm-1.651,6.6H163.3v-3.3h23.117v3.3Z" transform="translate(-160 -405.333)" fill="#070337"/>
    </g>
  </g>
  <g id="Group_213" data-name="Group 213" transform="translate(24.768 56.141)">
    <g id="Group_212" data-name="Group 212">
      <path id="Path_1562" data-name="Path 1562" d="M188.07,362.667H161.651A1.651,1.651,0,0,0,160,364.318v6.6a1.651,1.651,0,0,0,1.651,1.651h26.419a1.651,1.651,0,0,0,1.651-1.651v-6.6A1.651,1.651,0,0,0,188.07,362.667Zm-1.651,6.6H163.3v-3.3h23.117v3.3Z" transform="translate(-160 -362.667)" fill="#070337"/>
    </g>
  </g>
  <g id="Group_215" data-name="Group 215" transform="translate(24.768 49.536)">
    <g id="Group_214" data-name="Group 214">
      <path id="Path_1563" data-name="Path 1563" d="M188.07,320H161.651A1.651,1.651,0,0,0,160,321.651v6.6a1.651,1.651,0,0,0,1.651,1.651h26.419a1.651,1.651,0,0,0,1.651-1.651v-6.6A1.652,1.652,0,0,0,188.07,320Zm-1.651,6.6H163.3v-3.3h23.117v3.3Z" transform="translate(-160 -320)" fill="#070337"/>
    </g>
  </g>
  <g id="Group_217" data-name="Group 217" transform="translate(24.768 42.931)">
    <g id="Group_216" data-name="Group 216">
      <path id="Path_1564" data-name="Path 1564" d="M188.07,277.333H161.651A1.651,1.651,0,0,0,160,278.984v6.6a1.651,1.651,0,0,0,1.651,1.651h26.419a1.651,1.651,0,0,0,1.651-1.651v-6.6A1.652,1.652,0,0,0,188.07,277.333Zm-1.651,6.6H163.3v-3.3h23.117v3.3Z" transform="translate(-160 -277.333)" fill="#070337"/>
    </g>
  </g>
  <g id="Group_219" data-name="Group 219" transform="translate(24.768 36.327)">
    <g id="Group_218" data-name="Group 218">
      <path id="Path_1565" data-name="Path 1565" d="M188.07,234.667H161.651A1.651,1.651,0,0,0,160,236.318v6.6a1.651,1.651,0,0,0,1.651,1.651h26.419a1.651,1.651,0,0,0,1.651-1.651v-6.6A1.651,1.651,0,0,0,188.07,234.667Zm-1.651,6.6H163.3v-3.3h23.117v3.3Z" transform="translate(-160 -234.667)" fill="#070337"/>
    </g>
  </g>
  <g id="Group_221" data-name="Group 221" transform="translate(0 69.351)">
    <g id="Group_220" data-name="Group 220">
      <path id="Path_1566" data-name="Path 1566" d="M21.466,451.3V448H1.651A1.651,1.651,0,0,0,0,449.651v6.6a1.651,1.651,0,0,0,1.651,1.651H21.466v-3.3H3.3v-3.3H21.466Z" transform="translate(0 -448)" fill="#070337"/>
    </g>
  </g>
  <g id="Group_223" data-name="Group 223" transform="translate(0 62.746)">
    <g id="Group_222" data-name="Group 222">
      <path id="Path_1567" data-name="Path 1567" d="M21.466,408.636v-3.3H1.651A1.651,1.651,0,0,0,0,406.985v6.6a1.651,1.651,0,0,0,1.651,1.651H21.466v-3.3H3.3v-3.3Z" transform="translate(0 -405.334)" fill="#070337"/>
    </g>
  </g>
  <g id="Group_225" data-name="Group 225" transform="translate(0 56.141)">
    <g id="Group_224" data-name="Group 224">
      <path id="Path_1568" data-name="Path 1568" d="M21.466,365.969v-3.3H1.651A1.651,1.651,0,0,0,0,364.318v6.6a1.651,1.651,0,0,0,1.651,1.651H21.466v-3.3H3.3v-3.3Z" transform="translate(0 -362.667)" fill="#070337"/>
    </g>
  </g>
  <g id="Group_227" data-name="Group 227" transform="translate(0 49.536)">
    <g id="Group_226" data-name="Group 226">
      <path id="Path_1569" data-name="Path 1569" d="M21.466,323.3V320H1.651A1.651,1.651,0,0,0,0,321.651v6.6a1.651,1.651,0,0,0,1.651,1.651H21.466v-3.3H3.3v-3.3H21.466Z" transform="translate(0 -320)" fill="#070337"/>
    </g>
  </g>
  <g id="Group_229" data-name="Group 229" transform="translate(0 42.932)">
    <g id="Group_228" data-name="Group 228">
      <path id="Path_1570" data-name="Path 1570" d="M21.466,280.636v-3.3H1.651A1.651,1.651,0,0,0,0,278.985v6.6a1.651,1.651,0,0,0,1.651,1.651H21.466v-3.3H3.3v-3.3Z" transform="translate(0 -277.334)" fill="#070337"/>
    </g>
  </g>
  <g id="Group_231" data-name="Group 231" transform="translate(57.792 69.351)">
    <g id="Group_230" data-name="Group 230">
      <path id="Path_1571" data-name="Path 1571" d="M393.147,448H373.333v3.3H391.5v3.3H373.333v3.3h19.814a1.651,1.651,0,0,0,1.651-1.651v-6.6A1.651,1.651,0,0,0,393.147,448Z" transform="translate(-373.333 -448)" fill="#070337"/>
    </g>
  </g>
  <g id="Group_233" data-name="Group 233" transform="translate(57.792 62.746)">
    <g id="Group_232" data-name="Group 232">
      <path id="Path_1572" data-name="Path 1572" d="M393.147,405.333H373.333v3.3H391.5v3.3H373.333v3.3h19.814a1.651,1.651,0,0,0,1.651-1.651v-6.6A1.651,1.651,0,0,0,393.147,405.333Z" transform="translate(-373.333 -405.333)" fill="#070337"/>
    </g>
  </g>
  <g id="Group_235" data-name="Group 235" transform="translate(57.792 56.141)">
    <g id="Group_234" data-name="Group 234">
      <path id="Path_1573" data-name="Path 1573" d="M393.147,362.667H373.333v3.3H391.5v3.3H373.333v3.3h19.814a1.651,1.651,0,0,0,1.651-1.651v-6.6A1.651,1.651,0,0,0,393.147,362.667Z" transform="translate(-373.333 -362.667)" fill="#070337"/>
    </g>
  </g>
  <g id="Group_237" data-name="Group 237" transform="translate(57.792 49.536)">
    <g id="Group_236" data-name="Group 236">
      <path id="Path_1574" data-name="Path 1574" d="M393.147,320H373.333v3.3H391.5v3.3H373.333v3.3h19.814a1.651,1.651,0,0,0,1.651-1.651v-6.6A1.651,1.651,0,0,0,393.147,320Z" transform="translate(-373.333 -320)" fill="#070337"/>
    </g>
  </g>
  <g id="Group_239" data-name="Group 239" transform="translate(8.256)">
    <g id="Group_238" data-name="Group 238">
      <path id="Path_1575" data-name="Path 1575" d="M76.45,0H54.984a1.651,1.651,0,0,0-1.651,1.651V6.6A14.877,14.877,0,0,0,68.194,21.466H81.4v-3.3H68.194A11.573,11.573,0,0,1,56.635,6.6V3.3H76.45a6.6,6.6,0,0,1,6.6,6.6V34.675h3.3V9.907A9.917,9.917,0,0,0,76.45,0Z" transform="translate(-53.333)" fill="#070337"/>
    </g>
  </g>
  <g id="Group_241" data-name="Group 241" transform="translate(21.466 8.256)">
    <g id="Group_240" data-name="Group 240">
      <path id="Path_1576" data-name="Path 1576" d="M148.574,53.333h-9.907v3.3h9.907a6.6,6.6,0,0,1,6.6,6.6h3.3A9.917,9.917,0,0,0,148.574,53.333Z" transform="translate(-138.667 -53.333)" fill="#070337"/>
    </g>
  </g>
  <g id="Group_243" data-name="Group 243" transform="translate(37.978)">
    <g id="Group_242" data-name="Group 242">
      <path id="Path_1577" data-name="Path 1577" d="M276.706,0H255.24a9.917,9.917,0,0,0-9.907,9.907h3.3a6.6,6.6,0,0,1,6.6-6.6h19.814V6.6A11.573,11.573,0,0,1,263.5,18.163h-13.21v3.3H263.5A14.877,14.877,0,0,0,278.357,6.6V1.651A1.651,1.651,0,0,0,276.706,0Z" transform="translate(-245.333)" fill="#070337"/>
    </g>
  </g>
  <g id="Group_245" data-name="Group 245" transform="translate(37.978 8.256)">
    <g id="Group_244" data-name="Group 244">
      <path id="Path_1578" data-name="Path 1578" d="M255.24,53.333a9.917,9.917,0,0,0-9.907,9.907h3.3a6.6,6.6,0,0,1,6.6-6.6h9.907v-3.3Z" transform="translate(-245.333 -53.333)" fill="#070337"/>
    </g>
  </g>
  <g id="Group_247" data-name="Group 247" transform="translate(31.373 28.07)">
    <g id="Group_246" data-name="Group 246">
      <rect id="Rectangle_132" data-name="Rectangle 132" width="3.302" height="6.605" fill="#070337"/>
    </g>
  </g>
  <g id="Group_249" data-name="Group 249" transform="translate(44.583 28.07)">
    <g id="Group_248" data-name="Group 248">
      <rect id="Rectangle_133" data-name="Rectangle 133" width="3.302" height="6.605" fill="#070337"/>
    </g>
  </g>
  <g id="Group_251" data-name="Group 251" transform="translate(16.512 36.327)">
    <g id="Group_250" data-name="Group 250">
      <rect id="Rectangle_134" data-name="Rectangle 134" width="3.302" height="3.302" fill="#070337"/>
    </g>
  </g>
  <g id="Group_253" data-name="Group 253" transform="translate(9.907 36.327)">
    <g id="Group_252" data-name="Group 252">
      <rect id="Rectangle_135" data-name="Rectangle 135" width="3.302" height="3.302" fill="#070337"/>
    </g>
  </g>
  <g id="Group_255" data-name="Group 255" transform="translate(57.792 42.931)">
    <g id="Group_254" data-name="Group 254">
      <rect id="Rectangle_136" data-name="Rectangle 136" width="3.302" height="3.302" fill="#070337"/>
    </g>
  </g>
  <g id="Group_257" data-name="Group 257" transform="translate(64.397 42.931)">
    <g id="Group_256" data-name="Group 256">
      <rect id="Rectangle_137" data-name="Rectangle 137" width="3.302" height="3.302" fill="#070337"/>
    </g>
  </g>
  <g id="Group_259" data-name="Group 259" transform="translate(71.002 42.931)">
    <g id="Group_258" data-name="Group 258">
      <rect id="Rectangle_138" data-name="Rectangle 138" width="3.302" height="3.302" fill="#070337"/>
    </g>
  </g>
</svg>
