<svg xmlns="http://www.w3.org/2000/svg" width="85.051" height="84.88" viewBox="0 0 85.051 84.88">
  <g id="world-wide" transform="translate(0 -0.316)">
    <path id="Path_1580" data-name="Path 1580" d="M231.816,363.51c6.5-.924,12.205-7.712,15.793-17.737a77.2,77.2,0,0,0-15.793-1.859Zm0,0" transform="translate(-187.771 -278.314)" fill="#070337"/>
    <path id="Path_1581" data-name="Path 1581" d="M280.828,373.012c.384-.111.767-.223,1.147-.347.321-.1.637-.215.953-.325.374-.129.747-.262,1.118-.4.316-.12.629-.248.943-.376.362-.152.724-.3,1.081-.456.312-.137.623-.281.933-.426.351-.165.7-.334,1.047-.509q.456-.233.912-.476.511-.274,1.015-.56c.3-.172.6-.345.894-.523q.494-.3.983-.608c.292-.186.583-.374.87-.569.321-.216.637-.441.951-.666.283-.2.564-.4.84-.608.3-.235.616-.477.921-.721.271-.216.541-.43.807-.652.3-.252.595-.514.889-.775.258-.229.518-.456.77-.692.29-.271.573-.551.856-.83.245-.242.493-.48.733-.728.045-.046.087-.1.133-.143a51.089,51.089,0,0,0-10.415-4.008,37.718,37.718,0,0,1-9.715,15.775c.123-.032.246-.058.37-.09.325-.091.644-.191.962-.286Zm0,0" transform="translate(-226.392 -289.41)" fill="#070337"/>
    <path id="Path_1582" data-name="Path 1582" d="M356.853,231.684H338.628a78.828,78.828,0,0,1-3.069,21.029,52.863,52.863,0,0,1,11.536,4.59,42.467,42.467,0,0,0,9.758-25.62Zm0,0" transform="translate(-271.802 -187.408)" fill="#070337"/>
    <path id="Path_1583" data-name="Path 1583" d="M231.816,129.223h19.74a76.039,76.039,0,0,0-2.993-20.281,80.063,80.063,0,0,1-16.748,2Zm0,0" transform="translate(-187.771 -87.987)" fill="#070337"/>
    <path id="Path_1584" data-name="Path 1584" d="M231.816.316v19.6a77.252,77.252,0,0,0,15.793-1.859C244.021,8.029,238.32,1.24,231.816.316Zm0,0" transform="translate(-187.771)" fill="#070337"/>
    <path id="Path_1585" data-name="Path 1585" d="M231.816,249.967a80.114,80.114,0,0,1,16.748,2,76.044,76.044,0,0,0,2.993-20.282h-19.74Zm0,0" transform="translate(-187.77 -187.407)" fill="#070337"/>
    <path id="Path_1586" data-name="Path 1586" d="M347.094,80.844a52.864,52.864,0,0,1-11.536,4.59,78.826,78.826,0,0,1,3.069,21.029h18.225a42.48,42.48,0,0,0-9.758-25.62Zm0,0" transform="translate(-271.802 -65.227)" fill="#070337"/>
    <path id="Path_1587" data-name="Path 1587" d="M299.6,18.56c-.045-.045-.087-.094-.131-.141-.24-.248-.49-.487-.735-.728-.282-.278-.563-.56-.854-.83-.252-.235-.512-.456-.77-.69-.295-.261-.589-.525-.892-.777-.263-.222-.532-.434-.8-.647-.3-.246-.616-.491-.929-.727-.275-.207-.553-.407-.833-.608-.318-.229-.637-.456-.96-.674-.284-.191-.573-.379-.862-.562-.329-.212-.657-.419-.992-.619-.293-.176-.589-.35-.886-.518q-.51-.292-1.024-.567c-.3-.152-.608-.318-.912-.47-.35-.177-.7-.347-1.064-.514q-.456-.217-.926-.423c-.36-.16-.724-.3-1.087-.456-.313-.128-.625-.254-.941-.374-.369-.141-.743-.273-1.117-.4-.316-.111-.632-.222-.953-.326-.38-.123-.76-.235-1.15-.348-.316-.093-.634-.187-.954-.272-.122-.033-.247-.059-.37-.091a37.722,37.722,0,0,1,9.715,15.775A51.012,51.012,0,0,0,299.6,18.56Zm0,0" transform="translate(-226.36 -5.249)" fill="#070337"/>
    <path id="Path_1588" data-name="Path 1588" d="M0,106.464H18.225a78.858,78.858,0,0,1,3.068-21.029,52.8,52.8,0,0,1-11.535-4.59A42.469,42.469,0,0,0,0,106.464Zm0,0" transform="translate(0 -65.227)" fill="#070337"/>
    <path id="Path_1589" data-name="Path 1589" d="M148.488,363.51v-19.6a77.249,77.249,0,0,0-15.793,1.859c3.587,10.025,9.289,16.813,15.793,17.737Zm0,0" transform="translate(-107.483 -278.314)" fill="#070337"/>
    <path id="Path_1590" data-name="Path 1590" d="M131.661,231.684h-19.74a76.015,76.015,0,0,0,2.993,20.282,80.008,80.008,0,0,1,16.748-2Zm0,0" transform="translate(-90.656 -187.408)" fill="#070337"/>
    <path id="Path_1591" data-name="Path 1591" d="M148.488.316c-6.5.924-12.206,7.712-15.793,17.737a77.149,77.149,0,0,0,15.793,1.859Zm0,0" transform="translate(-107.483)" fill="#070337"/>
    <path id="Path_1592" data-name="Path 1592" d="M131.662,110.939a80.063,80.063,0,0,1-16.748-2,76.009,76.009,0,0,0-2.993,20.281h19.74Zm0,0" transform="translate(-90.656 -87.986)" fill="#070337"/>
    <path id="Path_1593" data-name="Path 1593" d="M82.316,6.789c-.123.032-.246.058-.37.09-.322.086-.64.182-.96.275-.381.111-.76.223-1.143.345-.323.1-.641.216-.958.327-.372.131-.744.262-1.113.4-.318.122-.631.248-.946.377l-1.081.456c-.313.137-.623.281-.933.426-.351.166-.7.334-1.047.509q-.456.233-.912.476-.511.274-1.014.561-.456.255-.9.523c-.33.2-.657.4-.982.608-.292.187-.583.376-.87.57-.321.216-.637.441-.951.666-.283.2-.564.4-.841.609-.311.234-.608.477-.921.72-.27.216-.543.43-.807.654-.3.251-.593.511-.886.77-.26.232-.522.456-.776.7-.289.269-.57.549-.852.827-.245.242-.494.481-.735.73-.044.046-.086.1-.132.143a51.032,51.032,0,0,0,10.415,4.009,37.706,37.706,0,0,1,9.71-15.766Zm0,0" transform="translate(-50.375 -5.243)" fill="#070337"/>
    <path id="Path_1594" data-name="Path 1594" d="M63.083,362.44c.283.278.564.56.854.831.252.234.512.456.771.689.295.262.589.525.892.777.263.22.531.433.8.647.3.246.608.491.93.728.274.206.552.4.831.609.318.228.638.456.962.675.284.191.573.379.862.563.329.211.657.418.992.618q.44.265.886.519.51.292,1.024.566c.3.152.608.318.912.47.35.177.7.347,1.064.514q.456.215.926.422c.36.16.723.3,1.087.456.313.128.625.254.941.374.369.142.743.274,1.117.4.316.111.632.222.953.325.38.123.76.236,1.15.348.316.093.634.187.953.272.123.033.248.059.371.091a37.728,37.728,0,0,1-9.715-15.775,51.036,51.036,0,0,0-10.415,4.01c.045.045.087.094.131.141.228.246.474.485.721.727Zm0,0" transform="translate(-50.407 -289.369)" fill="#070337"/>
    <path id="Path_1595" data-name="Path 1595" d="M9.758,257.3a52.873,52.873,0,0,1,11.535-4.59,78.856,78.856,0,0,1-3.068-21.029H0A42.475,42.475,0,0,0,9.758,257.3Zm0,0" transform="translate(0 -187.407)" fill="#070337"/>
  </g>
</svg>
