<svg xmlns="http://www.w3.org/2000/svg" width="84.183" height="84.184" viewBox="0 0 84.183 84.184">
  <g id="user" transform="translate(-1 -1)">
    <path id="Path_1596" data-name="Path 1596" d="M30.969,58.48l-1.756-1.756-1.92,1.92,3.676,3.676,9.107-9.107-1.92-1.92Z" transform="translate(9.407 17.994)" fill="#070337"/>
    <path id="Path_1597" data-name="Path 1597" d="M40.075,7.213l-1.92-1.92L30.969,12.48l-1.756-1.756-1.92,1.92,3.676,3.676Z" transform="translate(9.407 1.536)" fill="#070337"/>
    <path id="Path_1598" data-name="Path 1598" d="M55.789,32.578A6.789,6.789,0,1,0,49,25.789,6.8,6.8,0,0,0,55.789,32.578Zm0-10.862a4.073,4.073,0,1,1-4.073,4.073A4.078,4.078,0,0,1,55.789,21.716Z" transform="translate(17.174 6.44)" fill="#070337"/>
    <path id="Path_1599" data-name="Path 1599" d="M79.3,45.4l4.242-7.271a12.046,12.046,0,0,0-10.4-18.117h-.348A12.047,12.047,0,0,0,62.383,38.125l2.106,3.609H51.238a4.078,4.078,0,0,0-4.073,4.073V64.258a10.815,10.815,0,0,0-2.716-.706V22.631a10.87,10.87,0,1,0-8.147-2.3V55.311a1.359,1.359,0,0,1-1.358,1.358H33.587V54.323a6.81,6.81,0,0,0-5.445-6.655L23.337,46.7a2.717,2.717,0,0,1-1.59-1.246,6.8,6.8,0,0,0,1.76-2.367h.576a4.072,4.072,0,0,0,2.876-6.956,6.756,6.756,0,0,0-8.382-10.6,7.527,7.527,0,0,0-1.132-.1H12.623a7.538,7.538,0,0,0-5.935,12.2,4.005,4.005,0,0,0-.257,1.378A4.078,4.078,0,0,0,10.5,43.091h.576a6.8,6.8,0,0,0,1.761,2.368,2.608,2.608,0,0,1-1.485,1.218l-4.911.991A6.812,6.812,0,0,0,1,54.323V62.1H33.587V59.385h1.358a4.078,4.078,0,0,0,4.073-4.073V21.925a10.815,10.815,0,0,0,2.716.706V63.553a10.87,10.87,0,1,0,8.147,2.3V45.807a1.359,1.359,0,0,1,1.358-1.358H66.073l.553.948c-3.67,1.187-5.883,3.337-5.883,5.841,0,3.871,5.253,6.789,12.22,6.789s12.22-2.918,12.22-6.789c0-2.5-2.213-4.654-5.883-5.841ZM13.22,40.376V37.66a1.361,1.361,0,0,1,1.1-1.333,14.3,14.3,0,0,0,6.011,1.333h1.037v2.716a4.073,4.073,0,0,1-8.147,0Zm10.862,0V37.66a1.358,1.358,0,1,1,0,2.716ZM9.147,39.018A1.36,1.36,0,0,1,10.5,37.66v2.716A1.36,1.36,0,0,1,9.147,39.018Zm2.417-4.073H10.5a4.027,4.027,0,0,0-2,.544,4.8,4.8,0,0,1,4.114-7.333h3.889a6.721,6.721,0,0,0-.576,2.716h2.716a4.073,4.073,0,1,1,4.073,4.073h-2.4a11.553,11.553,0,0,1-5.145-1.215l-.286-.143h-.32A4.052,4.052,0,0,0,11.564,34.945Zm5.73,12.22a6.69,6.69,0,0,0,2.092-.364,5.445,5.445,0,0,0,.578.805,2.705,2.705,0,0,1-5.34.008,5.386,5.386,0,0,0,.58-.813A6.66,6.66,0,0,0,17.293,47.165Zm13.578,12.22H3.716V54.323a4.085,4.085,0,0,1,3.267-3.992L12,49.314c.094-.027.182-.067.273-.1a5.417,5.417,0,0,0,10.044-.01c.126.046.248.1.38.136l4.91.99a4.086,4.086,0,0,1,3.267,3.992Zm4.073-47.522a8.147,8.147,0,1,1,8.147,8.147A8.155,8.155,0,0,1,34.945,11.862ZM51.238,74.32a8.147,8.147,0,1,1-8.147-8.147A8.155,8.155,0,0,1,51.238,74.32Zm21.551-51.6h.348A9.33,9.33,0,0,1,81.2,36.756L73.832,49.379a1.047,1.047,0,0,1-1.738,0L64.729,36.756a9.33,9.33,0,0,1,8.06-14.031Zm.174,32.587c-5.439,0-9.5-2.151-9.5-4.073,0-1.294,1.879-2.664,4.577-3.426l1.714,2.937a3.721,3.721,0,0,0,6.429,0l1.714-2.937c2.7.762,4.576,2.132,4.576,3.426,0,1.923-4.065,4.073-9.5,4.073Z" transform="translate(0)" fill="#070337"/>
    <path id="Path_1600" data-name="Path 1600" d="M5,48H24.009v2.716H5Z" transform="translate(1.431 16.816)" fill="#070337"/>
    <path id="Path_1601" data-name="Path 1601" d="M5,52H24.009v2.716H5Z" transform="translate(1.431 18.247)" fill="#070337"/>
    <path id="Path_1602" data-name="Path 1602" d="M9,56h2.716v2.716H9Z" transform="translate(2.862 19.678)" fill="#070337"/>
    <path id="Path_1603" data-name="Path 1603" d="M5,56H7.716v2.716H5Z" transform="translate(1.431 19.678)" fill="#070337"/>
    <path id="Path_1604" data-name="Path 1604" d="M13,56h2.716v2.716H13Z" transform="translate(4.293 19.678)" fill="#070337"/>
    <path id="Path_1605" data-name="Path 1605" d="M17,56h2.716v2.716H17Z" transform="translate(5.725 19.678)" fill="#070337"/>
  </g>
</svg>
