<svg xmlns="http://www.w3.org/2000/svg" width="83.945" height="86.839" viewBox="0 0 83.945 86.839">
  <g id="Page-1" transform="translate(0 0)">
    <g id="_054---Cash" data-name="054---Cash" transform="translate(0 0)">
      <path id="Shape" d="M27.131,39.078H41.6a4.342,4.342,0,0,0,4.342-4.342V20.262h2.895a2.895,2.895,0,0,0,2.047-4.941L36.414.848a2.9,2.9,0,0,0-4.093,0L17.848,15.321a2.895,2.895,0,0,0,2.047,4.941h2.895V34.736a4.342,4.342,0,0,0,4.342,4.342Zm-7.237-21.71L34.368,2.894,48.856,17.368H44.5a1.447,1.447,0,0,0-1.447,1.447V34.736A1.447,1.447,0,0,1,41.6,36.183H27.131a1.447,1.447,0,0,1-1.447-1.447V18.815a1.447,1.447,0,0,0-1.447-1.447Z" transform="translate(7.605 0)" fill="#070337"/>
      <path id="Shape-2" data-name="Shape" d="M16.895,35.263V16.447a1.447,1.447,0,1,0-2.895,0V35.263a1.447,1.447,0,0,0,2.895,0Z" transform="translate(6.263 6.709)" fill="#070337"/>
      <path id="Shape-3" data-name="Shape" d="M10.895,41.263V22.447a1.447,1.447,0,1,0-2.895,0V41.263a1.447,1.447,0,1,0,2.895,0Z" transform="translate(3.579 9.393)" fill="#070337"/>
      <path id="Shape-4" data-name="Shape" d="M44.895,35.263V16.447a1.447,1.447,0,0,0-2.895,0V35.263a1.447,1.447,0,1,0,2.895,0Z" transform="translate(18.788 6.709)" fill="#070337"/>
      <path id="Shape-5" data-name="Shape" d="M50.895,41.263V22.447a1.447,1.447,0,0,0-2.895,0V41.263a1.447,1.447,0,0,0,2.895,0Z" transform="translate(21.472 9.393)" fill="#070337"/>
      <path id="Shape-6" data-name="Shape" d="M0,53.881V64.012c0,6.111,11.186,9.408,21.71,9.408,8.27,0,16.925-2.045,20.263-5.882,3.338,3.837,11.993,5.882,20.263,5.882,10.524,0,21.71-3.3,21.71-9.408V53.881c0-5.831-10.185-9.092-20.263-9.38V39.408C63.683,33.3,52.5,30,41.973,30a49.752,49.752,0,0,0-8.454.7,1.448,1.448,0,1,0,.495,2.853,46.761,46.761,0,0,1,7.959-.659c10.768,0,18.815,3.439,18.815,6.513,0,1.239-1.387,2.605-3.805,3.763a36.861,36.861,0,0,1-15.01,2.75,36.861,36.861,0,0,1-15.01-2.75c-2.418-1.158-3.805-2.524-3.805-3.763,0-1.3,1.576-2.78,4.216-3.944a1.447,1.447,0,1,0-1.167-2.649c-3.834,1.688-5.944,4.029-5.944,6.593V44.5C10.185,44.789,0,48.05,0,53.881ZM21.71,70.525c-10.768,0-18.815-3.439-18.815-6.513V58.737a15.052,15.052,0,0,0,2.563,1.512A39.8,39.8,0,0,0,21.71,63.289a39.783,39.783,0,0,0,16.262-3.039,15.806,15.806,0,0,0,2.3-1.334h.252v5.1C40.525,67.087,32.478,70.525,21.71,70.525Zm40.525,0c-10.768,0-18.815-3.439-18.815-6.513V58.919h.252a15.955,15.955,0,0,0,2.316,1.34,39.8,39.8,0,0,0,16.248,3.029,39.8,39.8,0,0,0,16.252-3.039,15.052,15.052,0,0,0,2.563-1.512v5.276C81.051,67.087,73,70.525,62.235,70.525ZM81.051,53.881c0,1.239-1.387,2.605-3.805,3.763a36.861,36.861,0,0,1-15.01,2.75,40.346,40.346,0,0,1-13.067-1.97c7.865-1.146,14.514-4.176,14.514-8.885V47.4C73.714,47.688,81.051,50.947,81.051,53.881Zm-55.33-8.105a39.8,39.8,0,0,0,16.252,3.039,39.8,39.8,0,0,0,16.252-3.039,15.052,15.052,0,0,0,2.563-1.512v5.276c0,3.074-8.047,6.513-18.815,6.513s-18.815-3.439-18.815-6.513V44.264A15.052,15.052,0,0,0,25.721,45.776ZM20.263,47.4v2.142c0,4.708,6.648,7.739,14.512,8.885a40.342,40.342,0,0,1-13.065,1.97A36.861,36.861,0,0,1,6.7,57.644c-2.418-1.158-3.805-2.524-3.805-3.763C2.895,50.947,10.231,47.688,20.263,47.4Z" transform="translate(0 13.419)" fill="#070337"/>
    </g>
  </g>
</svg>
